<svg width="132" height="99" viewBox="0 0 132 99" fill="none" xmlns="http://www.w3.org/2000/svg">
<path d="M0 16.5C0 12.1239 1.73839 7.92709 4.83274 4.83274C7.92709 1.73839 12.1239 0 16.5 0H115.5C119.876 0 124.073 1.73839 127.167 4.83274C130.262 7.92709 132 12.1239 132 16.5V82.5C132 86.8761 130.262 91.0729 127.167 94.1673C124.073 97.2616 119.876 99 115.5 99H16.5C12.1239 99 7.92709 97.2616 4.83274 94.1673C1.73839 91.0729 0 86.8761 0 82.5V16.5ZM16.5 8.25C14.312 8.25 12.2135 9.11919 10.6664 10.6664C9.11919 12.2135 8.25 14.312 8.25 16.5V18.2903L66 52.9402L123.75 18.2903V16.5C123.75 14.312 122.881 12.2135 121.334 10.6664C119.786 9.11919 117.688 8.25 115.5 8.25H16.5ZM123.75 27.9097L84.909 51.216L123.75 75.1162V27.9097ZM123.469 84.6367L76.9395 56.001L66 62.5598L55.0605 56.001L8.5305 84.6285C8.99931 86.3841 10.0346 87.9358 11.4757 89.0427C12.9167 90.1496 14.6829 90.7497 16.5 90.75H115.5C117.316 90.7502 119.081 90.1512 120.522 89.0459C121.963 87.9406 122.999 86.3908 123.469 84.6367ZM8.25 75.1162L47.091 51.216L8.25 27.9097V75.1162Z" fill="white"/>
</svg>
