<svg width="920" height="602" viewBox="0 0 920 602" fill="none" xmlns="http://www.w3.org/2000/svg">
<path d="M606.589 223.159C564.009 181.401 505.646 155.699 441.31 155.699C436.268 155.699 431.281 155.864 426.294 156.193H426.185C335.873 161.892 259.316 218.337 224.792 297.305C222.381 302.785 220.189 308.429 218.161 314.128C215.476 321.855 240.465 320.485 257.179 315.992C268.906 312.868 281.291 311.169 294.06 311.169C295.375 311.169 296.636 311.169 297.951 311.224C297.951 311.224 298.006 311.224 298.06 311.224C304.034 311.388 309.843 311.882 315.597 312.758H315.651C322.666 311.662 329.845 311.114 337.188 311.114C343.161 311.114 349.025 311.498 354.779 312.21C360.533 311.498 366.397 311.114 372.37 311.114C379.878 311.114 387.221 311.717 394.455 312.813C401.634 311.662 409.032 311.114 416.54 311.114C424.047 311.114 430.788 311.662 437.693 312.649C444.598 311.608 451.612 311.114 458.791 311.114C464.545 311.114 470.244 311.443 475.834 312.156C481.424 311.498 487.123 311.114 492.877 311.114C499.563 311.114 506.139 311.553 512.605 312.484C519.072 311.553 525.593 311.114 532.334 311.114C540.663 311.114 548.774 311.827 556.665 313.197C564.557 311.827 572.667 311.114 580.997 311.114C616.124 311.114 668.02 324.102 664.568 314.128C652.457 279.385 632.455 248.368 606.753 223.214L606.589 223.159ZM401.031 219.104C400.319 220.584 398.455 221.406 396.866 220.912C395.332 220.474 394.126 218.83 394.291 217.186C394.455 217.186 394.619 217.296 394.784 217.35C394.784 215.542 396.702 213.788 398.565 214.117C400.647 214.501 401.963 217.186 401.031 219.049V219.104Z" fill="#FEC931" stroke="#FEC931" stroke-miterlimit="10"/>
<path d="M290.335 310.512C276.744 311.882 263.153 313.526 249.563 315.279C261.29 312.156 273.675 310.457 286.444 310.457C287.759 310.457 289.019 310.457 290.335 310.512Z" stroke="#FEC931" stroke-miterlimit="10"/>
<path d="M60.1712 521.769C51.4579 521.769 45.0462 520.673 40.9362 518.481C36.8261 516.288 34.5793 512.288 34.2505 506.479C33.5381 496.615 33.2093 486.093 33.2093 474.859C33.2093 456.008 34.1409 438.033 35.9493 420.88H33.0997C27.4552 420.88 21.3723 420.552 14.851 419.839C9.59013 419.072 5.75408 416.387 3.45245 411.838C1.15082 407.29 0 402.139 0 396.439C0 391.726 0.657609 387.123 1.91803 382.684C3.17844 378.245 4.87727 374.519 7.0693 371.614C9.26133 368.71 11.7274 367.23 14.4674 367.23H116.342C118.918 367.23 121.219 368.655 123.247 371.45C125.275 374.245 126.809 377.807 127.96 382.136C129.111 386.465 129.659 390.959 129.659 395.562C129.659 401.974 128.398 407.673 125.932 412.66C123.411 417.647 119.411 420.332 113.876 420.661H110.204C108.177 420.661 102.313 420.552 92.6681 420.332V422.415C92.6681 426.799 92.7777 432.553 92.9969 439.841C93.4353 450.802 93.6545 463.461 93.6545 477.818C93.6545 487.792 93.4353 498.204 92.9969 509.055C92.9421 512.946 90.2569 516.014 84.996 518.316C79.7351 520.618 71.515 521.769 60.3356 521.769H60.1712Z" fill="#ADD6F1"/>
<path d="M203.913 521.769C190.98 521.769 179.691 519.631 170.046 515.302C160.401 510.973 152.4 505.219 145.989 497.93C139.577 490.697 134.809 482.531 131.576 473.379C128.398 464.283 126.754 454.966 126.754 445.376C126.754 435.786 128.398 426.086 131.686 416.77C134.974 407.454 139.851 399.124 146.372 391.672C152.894 384.219 161.059 378.3 170.868 373.861C180.623 369.422 192.021 367.23 205.064 367.23C218.107 367.23 229.56 369.368 239.314 373.642C249.069 377.917 257.179 383.671 263.646 390.904C270.112 398.138 274.99 406.249 278.223 415.345C281.456 424.442 283.1 433.759 283.1 443.294C283.1 452.829 281.456 462.639 278.113 471.955C274.771 481.271 269.784 489.655 263.208 497.163C256.577 504.671 248.357 510.644 238.492 515.083C228.628 519.522 217.12 521.769 204.078 521.769H203.913ZM205.502 469.982C211.366 469.982 216.572 467.735 221.285 463.187C225.943 458.638 228.409 451.952 228.628 443.075C228.628 437.156 227.587 432.334 225.559 428.552C223.532 424.771 220.901 422.031 217.668 420.223C214.435 418.414 210.982 417.538 207.311 417.538C201.338 417.538 195.912 419.73 191.035 424.114C186.158 428.498 183.582 434.69 183.308 442.746C183.308 448.884 184.404 453.925 186.541 457.98C188.679 462.036 191.473 465.05 194.871 467.023C198.269 468.995 201.831 469.982 205.557 469.982H205.502Z" fill="#9CCEA6"/>
<path d="M375.66 520.125C361.905 520.125 349.794 517.878 339.382 513.439C328.97 509 320.256 503.027 313.242 495.629C306.227 488.231 300.912 479.846 297.349 470.585C293.787 461.323 292.034 451.788 292.034 442.088C292.034 429.868 294.993 418.14 300.857 406.961C306.72 395.782 315.598 386.685 327.49 379.67C339.93 372.382 355.658 368.655 374.619 368.491C385.14 368.491 395.826 369.697 406.513 372.053C417.254 374.409 424.542 377.971 428.488 382.739C430.241 385.424 431.118 388.438 431.118 391.836C431.118 396.001 430.132 400.33 428.214 404.879C426.296 409.427 423.994 413.592 421.309 417.483C418.624 421.374 416.048 424.443 413.582 426.744C411.993 428.059 410.184 428.772 408.211 428.772C406.677 428.772 405.033 428.498 403.389 427.895C401.69 427.292 400.101 426.635 398.621 425.922C389.634 422.031 381.797 420.113 375.112 420.113C369.577 420.168 364.974 421.264 361.357 423.292C357.74 425.319 355.055 428.005 353.356 431.238C351.657 434.471 350.78 437.978 350.78 441.65C350.78 447.185 352.753 452.281 356.644 456.885C360.535 461.488 366.179 463.954 373.577 464.228C376.811 464.228 379.989 463.899 383.167 463.187C386.346 462.474 389.47 461.707 392.593 460.83C395.717 459.953 398.841 459.186 402.019 458.529C405.197 457.871 408.376 457.542 411.609 457.542C415.39 457.761 418.678 459.953 421.364 464.063C424.049 468.228 426.131 473.27 427.611 479.188C429.036 485.107 429.748 490.587 429.748 495.574C429.748 497.821 429.584 499.739 429.2 501.273C427.447 507.246 422.24 511.466 413.582 513.932C401.361 517.987 388.702 520.125 375.605 520.234L375.66 520.125Z" fill="#FEC931"/>
<path d="M548.829 521.769C540.116 521.769 533.704 520.673 529.594 518.481C525.484 516.288 523.237 512.288 522.909 506.479C522.196 496.615 521.867 486.093 521.867 474.859C521.867 456.008 522.799 438.033 524.607 420.88H521.758C516.113 420.88 510.03 420.552 503.509 419.839C498.248 419.072 494.467 416.387 492.111 411.838C489.754 407.29 488.658 402.139 488.658 396.439C488.658 391.726 489.316 387.123 490.576 382.684C491.837 378.245 493.59 374.519 495.728 371.614C497.92 368.71 500.386 367.23 503.126 367.23H605C607.576 367.23 609.932 368.655 611.905 371.45C613.933 374.245 615.467 377.807 616.618 382.136C617.769 386.465 618.317 390.959 618.317 395.562C618.317 401.974 617.056 407.673 614.59 412.66C612.07 417.647 608.069 420.332 602.534 420.661H598.863C596.835 420.661 590.971 420.552 581.381 420.332V422.415C581.381 426.799 581.491 432.553 581.71 439.841C582.148 450.802 582.368 463.461 582.368 477.818C582.368 487.792 582.148 498.204 581.71 509.055C581.655 512.946 578.97 516.014 573.709 518.316C568.448 520.618 560.228 521.769 549.049 521.769H548.829Z" fill="#F5A325"/>
<path d="M692.571 521.769C679.638 521.769 668.349 519.631 658.704 515.302C649.06 510.973 641.059 505.219 634.647 497.93C628.235 490.697 623.468 482.531 620.234 473.379C617.056 464.283 615.412 454.966 615.412 445.376C615.412 435.786 617.056 426.086 620.289 416.77C623.522 407.454 628.454 399.124 635.031 391.672C641.552 384.219 649.717 378.3 659.472 373.861C669.226 369.422 680.625 367.23 693.667 367.23C706.71 367.23 718.163 369.368 727.918 373.642C737.672 377.917 745.783 383.671 752.249 390.904C758.716 398.138 763.593 406.249 766.826 415.345C770.06 424.442 771.704 433.759 771.704 443.294C771.704 452.829 770.005 462.639 766.662 471.955C763.319 481.271 758.332 489.655 751.756 497.163C745.125 504.671 736.905 510.644 727.041 515.083C717.177 519.522 705.669 521.769 692.626 521.769H692.571ZM694.161 469.982C699.969 469.982 705.23 467.735 709.943 463.187C714.656 458.638 717.067 451.952 717.286 443.075C717.286 437.156 716.245 432.334 714.218 428.552C712.19 424.771 709.56 422.031 706.326 420.223C703.093 418.414 699.641 417.538 695.969 417.538C689.996 417.538 684.57 419.73 679.693 424.114C674.816 428.498 672.24 434.69 671.911 442.746C671.911 448.884 673.007 453.925 675.145 457.98C677.282 462.036 680.077 465.05 683.474 467.023C686.872 468.995 690.434 469.982 694.161 469.982Z" fill="#ADD6F1"/>
<path d="M864.317 520.125C850.507 520.125 838.451 517.878 828.039 513.439C817.627 509 808.914 503.027 801.899 495.629C794.885 488.231 789.569 479.846 786.007 470.585C782.445 461.323 780.691 451.788 780.691 442.088C780.691 429.868 783.65 418.14 789.514 406.961C795.378 395.782 804.255 386.685 816.147 379.67C828.587 372.382 844.315 368.655 863.276 368.491C873.798 368.491 884.484 369.697 895.17 372.053C905.911 374.409 913.199 377.971 917.145 382.739C918.899 385.424 919.776 388.438 919.776 391.836C919.776 396.001 918.789 400.33 916.871 404.879C914.953 409.427 912.651 413.592 909.966 417.483C907.281 421.374 904.705 424.443 902.239 426.744C900.65 428.059 898.842 428.772 896.869 428.772C895.334 428.772 893.69 428.498 891.992 427.895C890.293 427.292 888.703 426.635 887.224 425.922C878.237 422.031 870.4 420.113 863.714 420.113C858.179 420.168 853.576 421.264 849.959 423.292C846.342 425.319 843.657 428.005 841.958 431.238C840.26 434.471 839.383 437.978 839.383 441.65C839.383 447.185 841.356 452.281 845.246 456.885C849.137 461.488 854.782 463.954 862.18 464.228C865.413 464.228 868.592 463.899 871.77 463.187C874.948 462.474 878.072 461.707 881.196 460.83C884.319 459.953 887.498 459.186 890.621 458.529C893.745 457.871 896.978 457.542 900.212 457.542C903.993 457.761 907.281 459.953 909.966 464.063C912.651 468.228 914.734 473.27 916.159 479.188C917.583 485.107 918.296 490.587 918.296 495.574C918.296 497.821 918.131 499.739 917.748 501.273C915.994 507.246 910.788 511.466 902.13 513.932C889.909 517.987 877.25 520.125 864.153 520.234L864.317 520.125Z" fill="#9CCEA6"/>
<path d="M63.3496 595.804C60.3355 595.804 57.6503 595.475 55.4034 594.763C52.773 593.996 51.2386 592.681 50.7454 590.817C50.2522 588.406 49.8686 585.557 49.6494 582.269C49.4302 578.98 49.3206 575.747 49.3206 572.459C49.3206 565.445 49.6494 561.28 50.3618 559.965C50.7454 559.307 51.2934 558.814 52.0058 558.485C53.3758 557.992 55.1294 557.608 57.2667 557.334C59.4039 557.06 61.6507 556.896 64.0072 556.896C67.2404 556.896 70.3641 557.225 73.3781 557.882C76.3921 558.54 78.8582 559.691 80.7762 561.28C82.6942 562.869 83.6806 565.116 83.7902 567.911C83.7902 569.774 83.3518 571.308 82.475 572.624C81.5982 573.939 80.3378 574.98 78.7486 575.857C79.9542 576.35 81.105 576.953 82.1462 577.665C83.1874 578.378 84.0094 579.254 84.6671 580.296C85.3247 581.337 85.6535 582.542 85.6535 583.913C85.5439 586.269 84.7219 588.242 83.1326 589.776C81.5982 591.311 79.6254 592.516 77.2689 593.393C74.9125 594.27 72.5013 594.873 69.9804 595.256C67.4596 595.585 65.2676 595.804 63.3496 595.804ZM65.0484 571.802C66.254 571.692 67.1308 571.418 67.7336 570.87C68.3364 570.322 68.6104 569.719 68.6104 569.061C68.6104 568.404 68.2816 567.746 67.6788 567.143C67.076 566.595 66.1444 566.212 64.9388 566.102V567.527C64.9388 568.952 64.9388 570.377 65.0484 571.802ZM65.432 585.063C66.5828 584.899 67.4596 584.625 68.0624 584.132C68.6652 583.639 68.9392 583.091 68.9392 582.488C68.9392 581.885 68.6652 581.337 68.0624 580.844C67.4596 580.35 66.528 579.967 65.3224 579.857V582.049C65.3224 583.091 65.3224 584.132 65.432 585.118V585.063Z" fill="#ADD6F1"/>
<path d="M96.2838 594.982C95.0782 594.982 93.9274 594.818 92.7766 594.489C91.6257 594.16 90.6941 593.612 89.9817 592.9C89.2693 592.187 88.8309 591.201 88.7213 590.05C88.1185 582.104 87.8445 575.473 87.8445 570.158C87.8445 567.144 88.0089 564.897 88.2829 563.417C88.6117 562.376 89.5981 561.499 91.2421 560.841C92.8862 560.184 94.585 559.855 96.4482 559.855C98.0922 559.855 99.517 560.184 100.832 560.787C102.147 561.389 102.915 562.431 103.079 563.856C103.243 565.335 103.353 566.486 103.408 567.418C103.901 565.719 104.668 564.294 105.6 563.198C106.586 562.102 107.682 561.335 108.943 560.787C110.203 560.293 111.464 560.019 112.724 560.019C114.642 560.019 116.396 560.567 117.875 561.663C119.355 562.759 120.122 564.239 120.177 566.157C120.177 567.801 119.739 569.5 118.752 571.254C117.766 573.007 116.67 574.487 115.245 575.692C113.875 576.898 112.45 577.501 111.08 577.501C109.71 577.501 108.559 576.843 107.682 575.473C107.244 574.87 106.641 574.596 105.874 574.596C105.49 574.596 105.107 574.706 104.723 574.925C104.34 575.144 104.011 575.528 103.791 576.076C103.572 576.624 103.408 577.336 103.408 578.213V578.652C103.517 580.515 103.572 582.488 103.627 584.57L103.737 590.817C103.737 591.694 103.353 592.461 102.641 593.119C101.873 593.777 100.942 594.27 99.791 594.599C98.6402 594.928 97.4346 595.092 96.1194 595.092L96.2838 594.982Z" fill="#ADD6F1"/>
<path d="M127.905 568.021C125.493 567.473 123.63 566.431 122.205 564.842C120.835 563.253 120.123 561.773 120.123 560.403C120.123 559.526 120.397 558.814 121 558.266C121.548 557.718 122.479 557.444 123.685 557.389C124.343 557.389 125.055 557.608 125.767 558.047C126.48 558.485 127.083 559.143 127.685 560.075C129.165 557.663 130.919 556.512 132.946 556.512C134.097 556.512 134.919 556.841 135.467 557.389C136.015 557.937 136.289 558.705 136.289 559.581C136.289 560.513 135.96 561.554 135.358 562.65C134.755 563.746 133.823 564.787 132.563 565.774C131.302 566.76 129.768 567.527 127.905 568.13V568.021ZM127.466 595.147C125.439 595.147 123.959 594.873 122.973 594.325C122.041 593.777 121.493 592.791 121.383 591.311C121.219 588.79 121.109 586.105 121.109 583.2C121.109 579.419 121.274 575.748 121.548 572.131C121.548 571.528 122.205 571.035 123.301 570.596C124.452 570.158 126.041 569.939 128.233 569.939C130.425 569.939 132.069 570.103 133.22 570.487C134.371 570.87 134.974 571.418 135.029 572.185V574.926C135.193 577.666 135.193 580.734 135.193 584.242C135.193 586.708 135.193 589.283 135.084 591.914C135.084 592.9 134.426 593.667 133.22 594.27C132.015 594.873 130.042 595.147 127.466 595.147Z" fill="#ADD6F1"/>
<path d="M147.194 594.982C145.988 594.982 144.838 594.818 143.687 594.489C142.536 594.16 141.604 593.612 140.892 592.9C140.18 592.188 139.741 591.201 139.632 590.05C139.029 582.214 138.755 575.638 138.755 570.267C138.755 567.198 138.919 564.897 139.248 563.362C139.577 562.321 140.563 561.444 142.207 560.787C143.851 560.129 145.55 559.8 147.358 559.8C149.003 559.8 150.482 560.129 151.743 560.732C153.058 561.335 153.77 562.376 153.989 563.801C154.154 565.28 154.263 566.431 154.318 567.363C154.702 566.431 155.25 565.5 156.127 564.568C156.949 563.636 157.88 562.869 158.921 562.212C159.963 561.554 161.004 561.225 161.99 561.225C166.046 561.335 168.84 563.746 170.43 568.349C171.635 571.857 172.238 576.405 172.238 581.995C172.238 584.516 172.183 586.708 172.019 588.626V589.996C171.909 591.804 171.361 593.064 170.375 593.722C169.388 594.434 167.635 594.763 165.224 594.763C164.018 594.763 162.922 594.654 161.99 594.489C161.059 594.325 160.291 593.886 159.743 593.284C159.195 592.681 158.867 591.694 158.812 590.379C158.702 585.94 158.647 581.83 158.593 578.049C158.593 577.117 158.373 576.46 157.99 576.021C157.606 575.583 157.168 575.364 156.675 575.364C156.127 575.364 155.633 575.583 155.14 576.131C154.647 576.679 154.428 577.337 154.428 578.213V578.487C154.592 582.049 154.702 585.612 154.702 589.228V590.653C154.702 591.53 154.373 592.297 153.606 592.955C152.839 593.612 151.907 594.106 150.756 594.434C149.605 594.763 148.4 594.928 147.084 594.928L147.194 594.982Z" fill="#ADD6F1"/>
<path d="M192.46 594.489C188.296 594.434 184.898 593.612 182.158 592.023C179.418 590.434 177.445 588.406 176.185 585.885C174.924 583.365 174.212 580.625 174.212 577.775C174.212 575.473 174.595 573.226 175.417 571.034C176.239 568.842 177.445 566.815 178.979 565.061C180.569 563.308 182.487 561.883 184.788 560.787C187.09 559.691 189.72 559.197 192.734 559.197C196.571 559.197 199.859 560.293 202.653 562.376C203.147 562.814 203.421 563.417 203.421 564.184C203.421 565.28 203.037 566.486 202.27 567.856C201.503 569.226 200.626 570.432 199.53 571.473C198.434 572.514 197.393 573.007 196.406 573.007C196.023 573.007 195.639 572.898 195.31 572.733C193.94 571.966 192.625 571.637 191.474 571.637C189.83 571.637 188.515 572.185 187.638 573.172C186.761 574.158 186.268 575.309 186.268 576.569C186.268 577.556 186.597 578.487 187.2 579.309C188.186 580.625 189.94 581.282 192.351 581.282C193.502 581.282 194.652 581.173 195.803 581.008C197.009 580.844 198.16 580.734 199.311 580.679C200.023 580.679 200.626 580.953 201.119 581.447C201.612 581.94 201.996 582.597 202.215 583.419C202.434 584.241 202.599 585.118 202.599 586.05C202.599 587.639 202.215 589.228 201.503 590.708C200.79 592.242 199.694 593.229 198.269 593.667C196.242 594.215 194.269 594.489 192.296 594.489H192.46Z" fill="#ADD6F1"/>
<path d="M230.164 594.818C228.794 594.818 227.479 594.654 226.328 594.38C225.177 594.051 224.41 593.613 224.191 593.01C224.081 592.626 224.026 592.243 224.026 591.804V591.366C221.396 593.174 218.437 594.051 215.094 594.106C212.737 594.106 210.819 593.613 209.23 592.571C207.641 591.53 206.49 590.215 205.723 588.626C204.956 586.982 204.572 585.338 204.572 583.529C204.572 581.885 204.901 580.241 205.613 578.707C206.326 577.172 207.367 575.857 208.737 574.816C210.6 573.391 213.121 572.679 216.299 572.679C218.108 572.679 219.807 572.898 221.451 573.281C220.464 572.24 219.423 571.528 218.327 571.089C217.231 570.651 216.135 570.432 214.984 570.432C213.505 570.432 211.915 570.651 210.271 571.199C209.997 571.254 209.669 571.309 209.449 571.309C208.682 571.309 208.024 571.035 207.476 570.487C206.983 569.939 206.545 569.226 206.326 568.404C206.052 567.527 205.942 566.651 205.942 565.774C205.942 564.733 206.106 563.746 206.49 562.869C206.819 561.993 207.367 561.445 208.079 561.225C212.189 559.965 215.806 559.307 218.93 559.307C224.958 559.307 229.452 561.499 232.466 565.829C235.315 569.884 236.685 575.583 236.685 582.926C236.685 586.105 236.411 589.502 235.863 593.119C235.644 593.722 234.986 594.161 233.89 594.489C232.74 594.818 231.534 594.928 230.164 594.928V594.818ZM219.697 583.968C220.683 583.968 221.999 583.694 223.643 583.091C223.643 580.954 223.588 579.638 223.588 579.145C223.204 579.145 222.766 579.09 222.437 579.09C221.341 579.09 220.409 579.255 219.642 579.584C218.875 579.912 218.272 580.351 217.889 580.844C217.505 581.337 217.286 581.83 217.286 582.324C217.286 582.762 217.505 583.146 217.889 583.474C218.272 583.803 218.93 583.968 219.752 583.968H219.697Z" fill="#ADD6F1"/>
<path d="M247.973 594.982C246.768 594.982 245.617 594.818 244.466 594.489C243.315 594.16 242.438 593.612 241.671 592.9C240.959 592.187 240.52 591.201 240.411 590.05C239.808 582.104 239.534 575.473 239.534 570.158C239.534 567.144 239.698 564.897 239.972 563.417C240.301 562.376 241.342 561.499 242.931 560.841C244.521 560.184 246.274 559.855 248.138 559.855C249.782 559.855 251.206 560.184 252.522 560.787C253.837 561.389 254.604 562.431 254.768 563.856C254.933 565.335 255.042 566.486 255.097 567.418C255.59 565.719 256.303 564.294 257.289 563.198C258.276 562.102 259.372 561.335 260.632 560.787C261.893 560.293 263.153 560.019 264.413 560.019C266.386 560.019 268.085 560.567 269.565 561.663C271.044 562.759 271.811 564.239 271.866 566.157C271.866 567.801 271.373 569.5 270.441 571.254C269.51 573.007 268.359 574.487 266.934 575.692C265.564 576.898 264.139 577.501 262.769 577.501C261.399 577.501 260.248 576.843 259.372 575.473C258.933 574.87 258.33 574.596 257.563 574.596C257.18 574.596 256.796 574.706 256.412 574.925C256.029 575.144 255.7 575.528 255.481 576.076C255.262 576.624 255.097 577.336 255.097 578.213V578.652C255.207 580.515 255.262 582.488 255.316 584.57L255.426 590.817C255.426 591.694 255.042 592.461 254.33 593.119C253.618 593.777 252.631 594.27 251.48 594.599C250.33 594.928 249.124 595.092 247.809 595.092L247.973 594.982Z" fill="#ADD6F1"/>
<path d="M304.363 594.489C300.198 594.434 296.8 593.612 294.06 592.023C291.32 590.434 289.348 588.406 288.087 585.885C286.827 583.365 286.114 580.625 286.114 577.775C286.114 575.473 286.498 573.226 287.32 571.034C288.142 568.842 289.347 566.815 290.882 565.061C292.471 563.308 294.389 561.883 296.691 560.787C298.992 559.691 301.623 559.197 304.637 559.197C308.473 559.197 311.761 560.293 314.556 562.376C315.049 562.814 315.323 563.417 315.323 564.184C315.323 565.28 314.939 566.486 314.172 567.856C313.405 569.226 312.528 570.432 311.432 571.473C310.336 572.514 309.295 573.007 308.309 573.007C307.925 573.007 307.541 572.898 307.213 572.733C305.843 571.966 304.527 571.637 303.377 571.637C301.732 571.637 300.417 572.185 299.54 573.172C298.664 574.158 298.17 575.309 298.17 576.569C298.17 577.556 298.499 578.487 299.102 579.309C300.088 580.625 301.842 581.282 304.253 581.282C305.404 581.282 306.555 581.173 307.706 581.008C308.911 580.844 310.062 580.734 311.213 580.679C311.925 580.679 312.528 580.953 313.021 581.447C313.515 581.94 313.898 582.597 314.117 583.419C314.337 584.241 314.501 585.118 314.501 586.05C314.501 587.639 314.117 589.228 313.405 590.708C312.693 592.242 311.597 593.229 310.172 593.667C308.144 594.215 306.171 594.489 304.199 594.489H304.363Z" fill="#F3987D"/>
<path d="M331.49 594.818C328.805 594.818 326.449 594.325 324.476 593.338C322.503 592.352 320.804 590.982 319.434 589.283C318.119 587.584 317.078 585.721 316.42 583.584C315.763 581.447 315.434 579.309 315.434 577.117C315.434 574.925 315.763 572.733 316.42 570.596C317.078 568.459 318.119 566.541 319.434 564.842C320.75 563.143 322.448 561.773 324.476 560.787C326.504 559.8 328.805 559.252 331.49 559.252C334.176 559.252 336.587 559.746 338.615 560.732C340.642 561.718 342.341 563.088 343.656 564.732C345.026 566.431 346.013 568.295 346.67 570.377C347.328 572.459 347.657 574.651 347.657 576.843C347.657 579.035 347.328 581.227 346.615 583.365C345.958 585.502 344.917 587.42 343.547 589.119C342.177 590.818 340.478 592.188 338.505 593.229C336.532 594.27 334.121 594.763 331.436 594.763L331.49 594.818ZM331.545 582.707C332.751 582.707 333.792 582.159 334.779 581.063C335.765 579.967 336.258 578.378 336.313 576.295C336.313 574.871 336.094 573.665 335.655 572.733C335.217 571.802 334.669 571.089 334.011 570.651C333.354 570.213 332.641 569.939 331.874 569.939C330.723 569.939 329.682 570.487 328.75 571.583C327.819 572.679 327.326 574.377 327.271 576.624C327.271 577.994 327.49 579.09 327.874 580.022C328.257 580.953 328.805 581.611 329.463 582.05C330.12 582.488 330.833 582.707 331.545 582.707Z" fill="#F3987D"/>
<path d="M358.342 594.982C357.191 594.982 356.04 594.818 354.999 594.489C353.903 594.16 353.026 593.612 352.314 592.9C351.601 592.187 351.218 591.201 351.108 590.05C350.56 581.995 350.286 575.364 350.286 570.158C350.286 567.144 350.45 564.897 350.724 563.417C351.053 562.376 351.985 561.499 353.574 560.841C355.108 560.184 356.753 559.855 358.506 559.855C360.095 559.855 361.465 560.184 362.726 560.787C363.986 561.389 364.699 562.431 364.863 563.856C365.027 565.335 365.137 566.486 365.192 567.418C365.521 566.486 366.123 565.554 366.891 564.623C367.713 563.691 368.589 562.924 369.576 562.266C370.562 561.609 371.549 561.28 372.48 561.28C374.453 561.335 376.042 561.937 377.358 563.088C378.618 564.239 379.604 565.719 380.317 567.472C381.577 565.719 383.002 564.239 384.536 563.033C386.126 561.828 387.441 561.225 388.537 561.225C392.373 561.335 395.058 563.746 396.593 568.404C397.743 571.966 398.346 576.46 398.346 581.995C398.346 584.57 398.292 586.817 398.127 588.735V590.05C398.017 591.859 397.524 593.119 396.538 593.777C395.551 594.489 393.907 594.818 391.606 594.818C390.455 594.818 389.414 594.708 388.482 594.544C387.551 594.38 386.838 593.941 386.29 593.338C385.742 592.736 385.468 591.749 385.413 590.434C385.249 586.105 385.194 581.995 385.194 578.104C385.194 577.172 384.975 576.405 384.591 575.857C384.208 575.309 383.769 575.035 383.331 575.035C382.892 575.035 382.509 575.309 382.18 575.857C381.851 576.405 381.687 577.282 381.687 578.432C381.687 580.351 381.796 582.104 381.851 583.693C381.961 585.502 382.016 587.146 382.016 588.68V589.995C381.961 591.804 381.468 593.064 380.481 593.722C379.495 594.434 377.851 594.763 375.549 594.763C374.398 594.763 373.357 594.654 372.426 594.489C371.494 594.325 370.781 593.886 370.233 593.284C369.685 592.681 369.411 591.694 369.357 590.379C369.247 587.036 369.192 582.926 369.137 578.049C369.137 577.117 368.918 576.46 368.535 576.021C368.151 575.583 367.767 575.364 367.274 575.364C366.726 575.364 366.233 575.583 365.795 576.131C365.356 576.679 365.137 577.336 365.137 578.213V578.487C365.301 581.721 365.356 585.063 365.411 588.516V590.653C365.411 591.53 365.082 592.297 364.37 592.955C363.657 593.612 362.781 594.106 361.63 594.434C360.534 594.763 359.328 594.928 358.177 594.928L358.342 594.982Z" fill="#F3987D"/>
<path d="M423.666 601.175C422.461 601.175 421.255 601.011 420.159 600.682C419.063 600.353 418.131 599.805 417.419 599.093C416.707 598.38 416.268 597.394 416.159 596.243C415.994 594.106 415.775 590.27 415.501 584.735C415.227 579.2 415.062 574.213 415.062 569.719C415.062 566.377 415.172 563.965 415.446 562.595C415.775 561.554 416.707 560.787 418.241 560.184C419.775 559.581 421.419 559.307 423.173 559.307C424.598 559.307 425.913 559.526 427.173 559.965C428.434 560.403 429.311 561.17 429.859 562.157V562.047C431.612 560.239 433.804 559.307 436.38 559.307C438.243 559.307 439.942 559.691 441.367 560.513C442.792 561.335 444.052 562.431 445.093 563.801C446.135 565.171 446.902 566.705 447.45 568.404C447.998 570.103 448.272 571.802 448.272 573.555C448.272 575.199 447.998 576.789 447.505 578.323C447.011 579.858 446.189 581.228 445.093 582.433C443.997 583.639 442.627 584.625 440.928 585.338C439.23 586.05 437.202 586.434 434.791 586.434C433.585 586.434 432.325 586.324 430.955 586.105C431.064 589.941 431.174 593.503 431.284 596.791C431.284 597.723 430.9 598.49 430.188 599.147C429.42 599.805 428.489 600.298 427.338 600.627C426.187 600.956 424.981 601.12 423.666 601.12V601.175ZM432.38 578.268C433.256 578.268 433.914 578.049 434.462 577.666C435.01 577.282 435.394 576.734 435.668 576.131C435.942 575.528 436.051 574.871 436.051 574.213C436.051 573.281 435.832 572.459 435.339 571.747C434.846 571.035 434.243 570.651 433.421 570.651C432.599 570.651 431.612 571.144 430.516 572.076L430.681 578.049C431.338 578.214 431.886 578.323 432.38 578.323V578.268Z" fill="#F5A325"/>
<path d="M459.066 594.982C457.86 594.982 456.71 594.818 455.559 594.489C454.408 594.16 453.531 593.612 452.764 592.9C452.052 592.187 451.613 591.201 451.504 590.05C450.901 582.104 450.627 575.473 450.627 570.158C450.627 567.144 450.791 564.897 451.065 563.417C451.394 562.376 452.435 561.499 454.024 560.841C455.614 560.184 457.367 559.855 459.23 559.855C460.874 559.855 462.299 560.184 463.615 560.787C464.93 561.389 465.697 562.431 465.861 563.856C466.026 565.335 466.135 566.486 466.19 567.418C466.683 565.719 467.396 564.294 468.382 563.198C469.369 562.102 470.465 561.335 471.725 560.787C472.985 560.293 474.246 560.019 475.506 560.019C477.479 560.019 479.178 560.567 480.658 561.663C482.137 562.759 482.904 564.239 482.959 566.157C482.959 567.801 482.466 569.5 481.534 571.254C480.603 573.007 479.452 574.487 478.027 575.692C476.657 576.898 475.232 577.501 473.862 577.501C472.492 577.501 471.341 576.843 470.465 575.473C470.026 574.87 469.423 574.596 468.656 574.596C468.273 574.596 467.889 574.706 467.505 574.925C467.122 575.144 466.793 575.528 466.574 576.076C466.355 576.624 466.19 577.336 466.19 578.213V578.652C466.3 580.515 466.355 582.488 466.409 584.57L466.519 590.817C466.519 591.694 466.135 592.461 465.423 593.119C464.711 593.777 463.724 594.27 462.573 594.599C461.422 594.928 460.217 595.092 458.902 595.092L459.066 594.982Z" fill="#F5A325"/>
<path d="M499.015 594.818C496.33 594.818 493.973 594.325 492 593.338C490.028 592.352 488.329 590.982 486.959 589.283C485.644 587.584 484.602 585.721 483.945 583.584C483.287 581.447 482.958 579.309 482.958 577.117C482.958 574.925 483.287 572.733 483.945 570.596C484.602 568.459 485.644 566.541 486.959 564.842C488.274 563.143 489.973 561.773 492 560.787C494.028 559.8 496.33 559.252 499.015 559.252C501.7 559.252 504.111 559.746 506.139 560.732C508.167 561.718 509.865 563.088 511.181 564.732C512.551 566.431 513.537 568.295 514.195 570.377C514.852 572.459 515.181 574.651 515.181 576.843C515.181 579.035 514.852 581.227 514.14 583.365C513.482 585.502 512.441 587.42 511.071 589.119C509.701 590.818 508.002 592.188 506.029 593.229C504.057 594.27 501.645 594.763 498.96 594.763L499.015 594.818ZM499.07 582.707C500.275 582.707 501.317 582.159 502.303 581.063C503.289 579.967 503.783 578.378 503.837 576.295C503.837 574.871 503.618 573.665 503.18 572.733C502.741 571.802 502.193 571.089 501.536 570.651C500.878 570.213 500.166 569.939 499.398 569.939C498.248 569.939 497.206 570.487 496.275 571.583C495.343 572.679 494.85 574.377 494.795 576.624C494.795 577.994 495.014 579.09 495.398 580.022C495.782 580.953 496.33 581.611 496.987 582.05C497.645 582.488 498.357 582.707 499.07 582.707Z" fill="#F5A325"/>
<path d="M526.471 601.175C525.265 601.175 524.06 601.011 522.964 600.682C521.868 600.353 520.936 599.805 520.224 599.093C519.511 598.38 519.073 597.394 518.963 596.243C518.799 594.106 518.579 590.27 518.305 584.735C518.031 579.2 517.867 574.213 517.867 569.719C517.867 566.377 517.977 563.965 518.251 562.595C518.579 561.554 519.511 560.787 521.046 560.184C522.58 559.581 524.224 559.307 525.978 559.307C527.402 559.307 528.718 559.526 529.978 559.965C531.238 560.403 532.115 561.17 532.663 562.157V562.047C534.417 560.239 536.609 559.307 539.185 559.307C541.048 559.307 542.747 559.691 544.171 560.513C545.596 561.335 546.857 562.431 547.898 563.801C548.939 565.171 549.706 566.705 550.254 568.404C550.802 570.103 551.076 571.802 551.076 573.555C551.076 575.199 550.802 576.789 550.309 578.323C549.816 579.858 548.994 581.228 547.898 582.433C546.802 583.639 545.432 584.625 543.733 585.338C542.034 586.05 540.007 586.434 537.595 586.434C536.39 586.434 535.129 586.324 533.759 586.105C533.869 589.941 533.978 593.503 534.088 596.791C534.088 597.723 533.704 598.49 532.992 599.147C532.225 599.805 531.293 600.298 530.142 600.627C528.992 600.956 527.786 601.12 526.471 601.12V601.175ZM535.239 578.268C536.116 578.268 536.773 578.049 537.321 577.666C537.869 577.282 538.253 576.734 538.527 576.131C538.801 575.528 538.911 574.871 538.911 574.213C538.911 573.281 538.691 572.459 538.198 571.747C537.705 571.035 537.102 570.651 536.28 570.651C535.458 570.651 534.472 571.144 533.376 572.076L533.54 578.049C534.198 578.214 534.746 578.323 535.239 578.323V578.268Z" fill="#F5A325"/>
<path d="M569.052 594.818C566.367 594.818 564.01 594.325 562.038 593.338C560.065 592.352 558.366 590.982 556.996 589.283C555.681 587.584 554.64 585.721 553.982 583.584C553.324 581.447 552.995 579.309 552.995 577.117C552.995 574.925 553.324 572.733 553.982 570.596C554.64 568.459 555.681 566.541 556.996 564.842C558.311 563.143 560.01 561.773 562.038 560.787C564.065 559.8 566.367 559.252 569.052 559.252C571.737 559.252 574.149 559.745 576.176 560.732C578.204 561.718 579.903 563.088 581.218 564.732C582.588 566.431 583.574 568.294 584.232 570.377C584.89 572.459 585.218 574.651 585.218 576.843C585.218 579.035 584.89 581.227 584.177 583.365C583.52 585.502 582.478 587.42 581.108 589.119C579.738 590.818 578.039 592.188 576.067 593.229C574.094 594.27 571.683 594.763 568.997 594.763L569.052 594.818ZM569.107 582.707C570.313 582.707 571.354 582.159 572.34 581.063C573.327 579.967 573.82 578.378 573.875 576.295C573.875 574.87 573.655 573.665 573.217 572.733C572.779 571.802 572.231 571.089 571.573 570.651C570.915 570.212 570.203 569.938 569.436 569.938C568.285 569.938 567.244 570.486 566.312 571.582C565.38 572.678 564.887 574.377 564.832 576.624C564.832 577.994 565.052 579.09 565.435 580.022C565.819 580.953 566.367 581.611 567.025 582.049C567.682 582.488 568.395 582.707 569.107 582.707ZM568.34 555.307C567.792 555.307 567.244 555.087 566.696 554.649C566.148 554.211 565.709 553.717 565.38 553.06C565.052 552.457 564.887 551.854 564.887 551.361C564.887 550.923 565.052 550.594 565.326 550.32C567.024 548.785 568.285 547.525 569.162 546.538C570.039 545.552 571.244 544.346 572.779 543.031C573.053 542.812 573.381 542.702 573.71 542.702C574.313 542.702 574.916 542.976 575.573 543.47C576.231 544.018 576.779 544.62 577.217 545.278C577.656 545.936 577.875 546.593 577.875 547.086C577.875 547.58 577.108 548.511 575.628 549.881C573.601 551.69 571.573 553.389 569.491 554.923C569.162 555.197 568.778 555.307 568.395 555.307H568.34Z" fill="#F5A325"/>
<path d="M600.179 594.818C596.507 594.818 593.219 594.16 590.37 592.9C589.383 592.407 588.616 591.53 588.068 590.269C587.575 589.064 587.301 587.749 587.301 586.324C587.301 585.118 587.465 584.022 587.849 582.926C588.232 581.83 588.78 580.953 589.493 580.296C590.205 579.583 591.137 579.254 592.233 579.254C592.507 579.254 592.781 579.254 593.11 579.309C593.439 579.364 593.932 579.474 594.589 579.693C595.466 579.912 596.507 580.186 597.603 580.46C598.699 580.734 599.795 580.844 600.727 580.844C601.33 580.844 601.823 580.734 602.261 580.57C602.7 580.405 602.974 580.076 603.029 579.638C603.029 579.309 602.7 579.09 601.987 578.871C601.33 578.652 600.453 578.432 599.357 578.158C598.151 577.884 596.836 577.501 595.466 577.117C594.096 576.679 592.726 576.131 591.466 575.473C590.205 574.761 589.164 573.939 588.342 572.843C587.52 571.802 587.136 570.486 587.136 568.952V568.239C587.41 566.212 588.342 564.513 590.096 563.198C591.795 561.883 593.932 560.951 596.507 560.293C599.083 559.691 601.713 559.362 604.344 559.362C607.577 559.362 610.482 559.8 613.057 560.622C615.633 561.444 617.277 562.65 617.88 564.239C618.044 564.732 618.099 565.28 618.099 565.993C618.099 566.76 617.989 567.582 617.825 568.513C617.606 569.39 617.332 570.267 616.948 571.034C616.565 571.856 616.126 572.459 615.578 573.007C615.03 573.5 614.372 573.774 613.66 573.774C613.222 573.774 612.564 573.61 611.797 573.336C611.03 573.062 610.153 572.733 609.221 572.404C608.29 572.021 607.413 571.747 606.591 571.418C605.769 571.144 605.111 570.979 604.618 570.979C604.234 570.979 603.906 571.034 603.741 571.199C603.577 571.308 603.467 571.473 603.467 571.692C603.467 572.076 603.741 572.404 604.344 572.788C605.33 573.281 606.481 573.774 607.742 574.213C609.221 574.706 610.701 575.309 612.126 576.021C613.55 576.734 614.756 577.72 615.742 578.926C616.729 580.131 617.222 581.775 617.277 583.803C617.277 585.721 616.784 587.365 615.797 588.735C614.811 590.105 613.496 591.256 611.852 592.187C610.208 593.119 608.344 593.777 606.317 594.215C604.289 594.653 602.207 594.873 600.124 594.873L600.179 594.818Z" fill="#F5A325"/>
<path d="M627.579 568.021C625.168 567.473 623.305 566.431 621.88 564.842C620.51 563.253 619.797 561.773 619.797 560.403C619.797 559.526 620.071 558.814 620.674 558.266C621.222 557.718 622.154 557.444 623.359 557.389C624.017 557.389 624.729 557.608 625.442 558.047C626.154 558.485 626.757 559.143 627.36 560.075C628.839 557.663 630.593 556.512 632.621 556.512C633.772 556.512 634.594 556.841 635.142 557.389C635.69 557.937 635.964 558.705 635.964 559.581C635.964 560.513 635.635 561.554 635.032 562.65C634.429 563.746 633.498 564.787 632.237 565.774C630.977 566.76 629.442 567.527 627.579 568.13V568.021ZM627.086 595.147C625.058 595.147 623.579 594.873 622.592 594.325C621.661 593.777 621.113 592.791 621.003 591.311C620.839 588.79 620.729 586.105 620.729 583.2C620.729 579.419 620.893 575.748 621.167 572.131C621.167 571.528 621.825 571.035 622.921 570.596C624.072 570.158 625.661 569.939 627.853 569.939C630.045 569.939 631.689 570.103 632.84 570.487C633.991 570.87 634.594 571.418 634.648 572.185V574.926C634.813 577.666 634.813 580.734 634.813 584.242C634.813 586.708 634.813 589.283 634.703 591.914C634.703 592.9 634.046 593.667 632.84 594.27C631.634 594.873 629.662 595.147 627.086 595.147Z" fill="#F5A325"/>
<path d="M652.897 595.202C650.486 595.202 648.294 594.763 646.321 593.941C644.349 593.119 642.759 591.859 641.609 590.105C640.732 588.735 640.074 587.201 639.581 585.392C639.088 583.584 638.814 581.556 638.649 579.255C638.485 576.953 638.375 574.432 638.375 571.747C638.375 568.02 638.43 564.13 638.594 560.184C638.704 558.814 639.307 557.992 640.512 557.718C641.554 557.444 642.759 557.279 643.965 557.279H645.116C646.541 557.279 647.801 557.279 648.733 557.499C650.87 557.882 652.021 558.814 652.13 560.348C652.13 561.28 652.185 562.321 652.185 563.362C652.185 564.458 652.185 565.774 652.295 567.253C653.171 567.253 654.103 567.253 655.089 567.253H655.583C656.24 567.253 656.788 567.472 657.227 567.911C657.665 568.349 657.994 568.897 658.213 569.555C658.432 570.212 658.542 570.925 658.542 571.637C658.542 572.733 658.268 573.774 657.775 574.706C657.282 575.638 656.46 576.131 655.418 576.24H654.706C653.61 576.24 652.569 576.24 651.692 576.076V576.898V578.871V581.392C651.692 582.323 651.692 583.036 651.692 583.474C651.856 584.187 652.021 584.68 652.295 585.009C652.569 585.337 652.843 585.447 653.171 585.447C653.665 585.447 654.103 585.173 654.541 584.68C654.98 584.132 655.254 583.529 655.418 582.817C655.583 582.104 656.131 581.611 657.062 581.392C657.994 581.173 659.09 581.063 660.296 581.063H661.392C661.885 581.063 662.323 581.063 662.762 581.173C663.2 581.282 663.584 581.447 663.912 581.775C664.241 582.104 664.46 582.597 664.625 583.2C664.844 584.187 664.954 585.063 664.954 585.885C664.954 587.529 664.625 588.899 663.912 590.105C663.2 591.256 662.268 592.242 661.118 593.01C659.967 593.777 658.652 594.325 657.172 594.708C655.692 595.092 654.213 595.256 652.733 595.256L652.897 595.202Z" fill="#F5A325"/>
<path d="M681.667 594.818C678.981 594.818 676.625 594.325 674.597 593.338C672.57 592.352 670.926 590.982 669.611 589.283C668.295 587.584 667.254 585.721 666.597 583.584C665.939 581.447 665.61 579.309 665.61 577.117C665.61 574.925 665.939 572.733 666.597 570.596C667.254 568.459 668.295 566.541 669.611 564.842C670.926 563.143 672.625 561.773 674.597 560.787C676.625 559.8 678.927 559.252 681.612 559.252C684.297 559.252 686.708 559.746 688.736 560.732C690.764 561.718 692.462 563.088 693.778 564.732C695.148 566.431 696.134 568.295 696.792 570.377C697.449 572.459 697.778 574.651 697.778 576.843C697.778 579.035 697.449 581.227 696.737 583.365C696.025 585.502 695.038 587.42 693.668 589.119C692.298 590.818 690.654 592.188 688.626 593.229C686.599 594.27 684.242 594.763 681.557 594.763L681.667 594.818ZM681.722 582.707C682.927 582.707 683.968 582.159 684.955 581.063C685.941 579.967 686.434 578.378 686.489 576.295C686.489 574.871 686.27 573.665 685.832 572.733C685.393 571.802 684.845 571.089 684.188 570.651C683.53 570.213 682.818 569.939 682.05 569.939C680.9 569.939 679.858 570.487 678.927 571.583C677.995 572.679 677.502 574.377 677.447 576.624C677.447 577.994 677.666 579.09 678.05 580.022C678.488 580.899 678.981 581.611 679.639 582.05C680.297 582.488 681.009 582.707 681.722 582.707Z" fill="#F5A325"/>
<path d="M730.329 594.763C727.37 594.763 724.794 594.27 722.602 593.283C720.41 592.297 718.602 590.982 717.122 589.393C715.642 587.749 714.601 585.885 713.889 583.858C713.176 581.775 712.793 579.693 712.793 577.501C712.793 574.432 713.45 571.528 714.82 568.733C716.19 565.938 718.163 563.691 720.794 561.937C723.424 560.184 726.712 559.197 730.658 559.033C733.233 559.033 735.59 559.636 737.618 560.896C739.645 562.157 741.234 563.801 742.385 565.883C743.536 567.965 744.139 570.322 744.139 572.898C744.139 573.391 744.139 573.884 744.084 574.432C743.974 575.309 743.646 576.021 743.043 576.679C742.44 577.282 741.728 577.665 740.851 577.72C739.59 577.83 738.33 577.83 737.07 577.83C735.48 577.83 733.891 577.83 732.357 577.72C730.767 577.665 729.178 577.61 727.644 577.61C726.767 577.61 726.109 577.775 725.616 578.158C725.178 578.542 724.904 578.926 724.904 579.419C724.904 579.857 725.123 580.296 725.507 580.734C725.89 581.173 726.493 581.501 727.315 581.775C728.137 582.049 729.178 582.214 730.493 582.214C731.863 582.214 733.398 581.994 734.932 581.611C736.522 581.227 737.946 580.789 739.316 580.35H739.426C739.81 580.35 740.358 580.679 740.96 581.337C741.618 582.049 742.166 582.871 742.659 583.913C743.152 584.954 743.426 585.995 743.426 587.036C743.426 587.968 743.152 588.79 742.604 589.557C741.125 591.311 739.262 592.626 736.96 593.448C734.658 594.27 732.466 594.708 730.384 594.708L730.329 594.763ZM727.205 571.254C728.63 571.254 730.055 571.144 731.535 571.144H734.11C734.11 569.884 733.727 569.007 733.014 568.349C732.302 567.692 731.48 567.363 730.603 567.363C729.781 567.363 729.014 567.691 728.356 568.294C727.699 568.897 727.315 569.884 727.205 571.199V571.254Z" fill="#9CCEA6"/>
<path d="M784.692 594.818C783.322 594.818 782.007 594.654 780.856 594.38C779.705 594.051 778.938 593.613 778.719 593.01C778.609 592.626 778.555 592.243 778.555 591.804V591.366C775.924 593.174 772.965 594.051 769.622 594.106C767.266 594.106 765.348 593.613 763.758 592.571C762.169 591.53 761.018 590.215 760.251 588.626C759.484 586.982 759.1 585.338 759.1 583.529C759.1 581.885 759.429 580.241 760.142 578.707C760.854 577.172 761.895 575.857 763.265 574.816C765.128 573.391 767.649 572.679 770.828 572.679C772.636 572.679 774.335 572.898 775.979 573.281C774.993 572.24 773.951 571.528 772.855 571.089C771.759 570.651 770.663 570.432 769.512 570.432C768.033 570.432 766.444 570.651 764.8 571.199C764.526 571.254 764.197 571.309 763.978 571.309C763.21 571.309 762.553 571.035 762.005 570.487C761.512 569.939 761.073 569.226 760.854 568.404C760.58 567.527 760.47 566.651 760.47 565.774C760.47 564.733 760.635 563.746 761.018 562.869C761.347 561.993 761.895 561.445 762.608 561.225C766.718 559.965 770.334 559.307 773.458 559.307C779.486 559.307 783.98 561.499 786.994 565.829C789.844 569.884 791.214 575.583 791.214 582.926C791.214 586.105 790.94 589.502 790.392 593.119C790.172 593.722 789.515 594.161 788.419 594.489C787.268 594.818 786.062 594.928 784.692 594.928V594.818ZM774.225 583.968C775.212 583.968 776.527 583.694 778.171 583.091C778.171 580.954 778.116 579.638 778.116 579.145C777.733 579.145 777.294 579.09 776.965 579.09C775.869 579.09 774.938 579.255 774.171 579.584C773.403 579.912 772.8 580.351 772.417 580.844C772.033 581.337 771.814 581.83 771.814 582.324C771.814 582.762 772.033 583.146 772.417 583.474C772.8 583.803 773.458 583.968 774.28 583.968H774.225Z" fill="#FE4476"/>
<path d="M802.228 594.982C801.077 594.982 799.926 594.818 798.885 594.489C797.789 594.16 796.912 593.612 796.2 592.9C795.487 592.187 795.104 591.201 794.994 590.05C794.446 581.995 794.172 575.364 794.172 570.158C794.172 567.144 794.337 564.897 794.611 563.417C794.939 562.376 795.871 561.499 797.46 560.841C798.995 560.184 800.639 559.855 802.392 559.855C803.981 559.855 805.351 560.184 806.612 560.787C807.872 561.389 808.585 562.431 808.749 563.856C808.914 565.335 809.023 566.486 809.078 567.418C809.407 566.486 810.01 565.554 810.777 564.623C811.599 563.691 812.476 562.924 813.462 562.266C814.448 561.609 815.435 561.28 816.366 561.28C818.339 561.335 819.928 561.937 821.244 563.088C822.504 564.239 823.491 565.719 824.203 567.472C825.463 565.719 826.888 564.239 828.423 563.033C830.012 561.828 831.327 561.225 832.423 561.225C836.259 561.335 838.944 563.746 840.479 568.404C841.63 571.966 842.232 576.46 842.232 581.995C842.232 584.57 842.178 586.817 842.013 588.735V590.05C841.904 591.859 841.41 593.119 840.424 593.777C839.438 594.489 837.794 594.818 835.492 594.818C834.341 594.818 833.3 594.708 832.368 594.544C831.437 594.38 830.724 593.941 830.176 593.338C829.628 592.736 829.354 591.749 829.299 590.434C829.135 586.105 829.08 581.995 829.08 578.104C829.08 577.172 828.861 576.405 828.477 575.857C828.094 575.309 827.655 575.035 827.217 575.035C826.779 575.035 826.395 575.309 826.066 575.857C825.737 576.405 825.573 577.282 825.573 578.432C825.573 580.351 825.683 582.104 825.737 583.693C825.847 585.502 825.902 587.146 825.902 588.68V589.995C825.847 591.804 825.354 593.064 824.367 593.722C823.381 594.434 821.737 594.763 819.435 594.763C818.284 594.763 817.243 594.654 816.312 594.489C815.38 594.325 814.668 593.886 814.12 593.284C813.572 592.681 813.298 591.694 813.243 590.379C813.133 587.036 813.078 582.926 813.024 578.049C813.024 577.117 812.804 576.46 812.421 576.021C812.037 575.583 811.654 575.364 811.16 575.364C810.612 575.364 810.119 575.583 809.681 576.131C809.242 576.679 809.023 577.336 809.023 578.213V578.487C809.188 581.721 809.242 585.063 809.297 588.516V590.653C809.297 591.53 808.968 592.297 808.256 592.955C807.544 593.612 806.667 594.106 805.516 594.434C804.42 594.763 803.214 594.928 802.063 594.928L802.228 594.982Z" fill="#FE4476"/>
<path d="M860.371 594.818C857.686 594.818 855.329 594.325 853.357 593.338C851.384 592.352 849.685 590.982 848.315 589.283C847 587.584 845.959 585.721 845.301 583.584C844.643 581.447 844.314 579.309 844.314 577.117C844.314 574.925 844.643 572.733 845.301 570.596C845.959 568.459 847 566.541 848.315 564.842C849.63 563.143 851.329 561.773 853.357 560.787C855.384 559.8 857.686 559.252 860.371 559.252C863.056 559.252 865.468 559.746 867.495 560.732C869.523 561.718 871.222 563.088 872.537 564.732C873.907 566.431 874.893 568.295 875.551 570.377C876.209 572.459 876.537 574.651 876.537 576.843C876.537 579.035 876.209 581.227 875.496 583.365C874.838 585.502 873.797 587.42 872.427 589.119C871.057 590.818 869.358 592.188 867.386 593.229C865.413 594.27 863.002 594.763 860.316 594.763L860.371 594.818ZM860.426 582.707C861.632 582.707 862.673 582.159 863.659 581.063C864.646 579.967 865.139 578.378 865.194 576.295C865.194 574.871 864.974 573.665 864.536 572.733C864.098 571.802 863.55 571.089 862.892 570.651C862.234 570.213 861.522 569.939 860.755 569.939C859.604 569.939 858.563 570.487 857.631 571.583C856.699 572.679 856.206 574.377 856.151 576.624C856.151 577.994 856.371 579.09 856.754 580.022C857.138 580.953 857.686 581.611 858.344 582.05C859.001 582.488 859.713 582.707 860.426 582.707Z" fill="#FE4476"/>
<path d="M887.553 594.982C886.347 594.982 885.196 594.818 884.046 594.489C882.895 594.16 882.018 593.612 881.251 592.9C880.538 592.187 880.1 591.201 879.99 590.05C879.388 582.104 879.114 575.473 879.114 570.158C879.114 567.144 879.278 564.897 879.552 563.417C879.881 562.376 880.922 561.499 882.511 560.841C884.1 560.184 885.854 559.855 887.717 559.855C889.361 559.855 890.786 560.184 892.101 560.787C893.416 561.389 894.184 562.431 894.348 563.856C894.513 565.335 894.622 566.486 894.677 567.418C895.17 565.719 895.883 564.294 896.869 563.198C897.855 562.102 898.951 561.335 900.212 560.787C901.472 560.293 902.733 560.019 903.993 560.019C905.966 560.019 907.665 560.567 909.144 561.663C910.624 562.759 911.391 564.239 911.446 566.157C911.446 567.801 910.953 569.5 910.021 571.254C909.09 573.007 907.939 574.487 906.514 575.692C905.144 576.898 903.719 577.501 902.349 577.501C900.979 577.501 899.828 576.843 898.951 575.473C898.513 574.87 897.91 574.596 897.143 574.596C896.759 574.596 896.376 574.706 895.992 574.925C895.609 575.144 895.28 575.528 895.061 576.076C894.841 576.624 894.677 577.336 894.677 578.213V578.652C894.787 580.515 894.841 582.488 894.896 584.57L895.006 590.817C895.006 591.694 894.622 592.461 893.91 593.119C893.197 593.777 892.211 594.27 891.06 594.599C889.909 594.928 888.704 595.092 887.388 595.092L887.553 594.982Z" fill="#FE4476"/>
<path d="M49.9786 289.852L188.405 298.894" stroke="#ADD6F1" stroke-width="2" stroke-miterlimit="10"/>
<path d="M156.84 212.857L223.642 249.244" stroke="#FEC931" stroke-width="2" stroke-miterlimit="10"/>
<path d="M174.541 116.955L268.799 198.444" stroke="#9CCEA6" stroke-width="2" stroke-miterlimit="10"/>
<path d="M277.017 114.325L313.131 159.645" stroke="#F5A325" stroke-width="2" stroke-miterlimit="10"/>
<path d="M323.873 31.6305L365.412 128.737" stroke="#F3A5BA" stroke-width="2" stroke-miterlimit="10"/>
<path d="M503.783 0.174866L481.808 123.915" stroke="#B0DEED" stroke-width="2" stroke-miterlimit="10"/>
<path d="M416.815 67.251L424.542 118.818" stroke="#9CCEA6" stroke-width="2" stroke-miterlimit="10"/>
<path d="M573.983 86.4861L551.35 142.164" stroke="#F3987D" stroke-width="2" stroke-miterlimit="10"/>
<path d="M593.547 175.647L713.451 80.184" stroke="#ADD6F1" stroke-width="2" stroke-miterlimit="10"/>
<path d="M654.267 234.284L719.206 215.377" stroke="#9CCEA6" stroke-width="2" stroke-miterlimit="10"/>
<path d="M694.051 315.882L855.439 308.703" stroke="#FEC931" stroke-width="2" stroke-miterlimit="10"/>
<path d="M362.672 258.232C402.402 289.578 458.737 287.769 495.673 252.752C503.345 245.463 491.727 233.845 484.055 241.134C454.134 269.466 406.896 272.316 374.289 246.614C370.782 243.819 366.124 243.271 362.672 246.614C359.767 249.464 359.219 255.492 362.672 258.232Z" fill="white"/>
<path d="M395.989 224.858C398.955 224.858 401.359 222.454 401.359 219.488C401.359 216.522 398.955 214.117 395.989 214.117C393.023 214.117 390.618 216.522 390.618 219.488C390.618 222.454 393.023 224.858 395.989 224.858Z" fill="white" stroke="white" stroke-miterlimit="10"/>
<path d="M463.12 223.762C466.086 223.762 468.491 221.358 468.491 218.391C468.491 215.425 466.086 213.021 463.12 213.021C460.154 213.021 457.75 215.425 457.75 218.391C457.75 221.358 460.154 223.762 463.12 223.762Z" fill="white" stroke="white" stroke-miterlimit="10"/>
</svg>
