<svg width="120" height="120" viewBox="0 0 120 120" fill="none" xmlns="http://www.w3.org/2000/svg">
<path d="M60 0C43.7175 0 41.67 0.075 35.2725 0.36C28.875 0.66 24.5175 1.665 20.7 3.15C16.6938 4.65244 13.0661 7.01549 10.0725 10.0725C7.01549 13.0661 4.65244 16.6938 3.15 20.7C1.665 24.51 0.6525 28.875 0.36 35.25C0.075 41.6625 0 43.7025 0 60.0075C0 76.2975 0.075 78.3375 0.36 84.735C0.66 91.125 1.665 95.4825 3.15 99.3C4.6875 103.245 6.735 106.59 10.0725 109.927C13.4025 113.265 16.7475 115.32 20.6925 116.85C24.5175 118.335 28.8675 119.347 35.2575 119.64C41.6625 119.925 43.7025 120 60 120C76.2975 120 78.33 119.925 84.735 119.64C91.1175 119.34 95.49 118.335 99.3075 116.85C103.311 115.347 106.936 112.984 109.927 109.927C113.265 106.59 115.312 103.245 116.85 99.3C118.327 95.4825 119.34 91.125 119.64 84.735C119.925 78.3375 120 76.2975 120 60C120 43.7025 119.925 41.6625 119.64 35.2575C119.34 28.875 118.327 24.51 116.85 20.7C115.348 16.6938 112.985 13.0661 109.927 10.0725C106.934 7.01549 103.306 4.65244 99.3 3.15C95.475 1.665 91.11 0.6525 84.7275 0.36C78.3225 0.075 76.29 0 59.985 0H60ZM54.6225 10.815H60.0075C76.0275 10.815 77.925 10.8675 84.2475 11.16C90.0975 11.4225 93.2775 12.405 95.3925 13.2225C98.19 14.31 100.192 15.615 102.292 17.715C104.393 19.815 105.69 21.81 106.778 24.615C107.603 26.7225 108.577 29.9025 108.84 35.7525C109.132 42.075 109.192 43.9725 109.192 59.985C109.192 75.9975 109.132 77.9025 108.84 84.225C108.577 90.075 107.595 93.2475 106.778 95.3625C105.809 97.9643 104.274 100.318 102.285 102.255C100.185 104.355 98.19 105.653 95.385 106.74C93.285 107.565 90.105 108.54 84.2475 108.81C77.925 109.095 76.0275 109.163 60.0075 109.163C43.9875 109.163 42.0825 109.095 35.76 108.81C29.91 108.54 26.7375 107.565 24.6225 106.74C22.0187 105.774 19.662 104.243 17.7225 102.255C15.7296 100.317 14.1925 97.9601 13.2225 95.355C12.405 93.2475 11.4225 90.0675 11.16 84.2175C10.875 77.895 10.815 75.9975 10.815 59.97C10.815 43.9425 10.875 42.06 11.16 35.7375C11.43 29.8875 12.405 26.7075 13.23 24.5925C14.3175 21.795 15.6225 19.7925 17.7225 17.6925C19.8225 15.5925 21.8175 14.295 24.6225 13.2075C26.7375 12.3825 29.91 11.4075 35.76 11.1375C41.295 10.8825 43.44 10.8075 54.6225 10.8V10.815ZM92.0325 20.775C91.087 20.775 90.1507 20.9612 89.2772 21.3231C88.4036 21.6849 87.6099 22.2153 86.9413 22.8838C86.2728 23.5524 85.7424 24.3461 85.3806 25.2197C85.0187 26.0932 84.8325 27.0295 84.8325 27.975C84.8325 28.9205 85.0187 29.8568 85.3806 30.7303C85.7424 31.6039 86.2728 32.3976 86.9413 33.0662C87.6099 33.7348 88.4036 34.2651 89.2772 34.6269C90.1507 34.9888 91.087 35.175 92.0325 35.175C93.9421 35.175 95.7734 34.4164 97.1237 33.0662C98.4739 31.7159 99.2325 29.8846 99.2325 27.975C99.2325 26.0654 98.4739 24.2341 97.1237 22.8838C95.7734 21.5336 93.9421 20.775 92.0325 20.775ZM60.0075 29.19C55.9205 29.1262 51.8617 29.8761 48.0673 31.3961C44.273 32.916 40.8189 35.1755 37.9061 38.0432C34.9934 40.9108 32.6802 44.3293 31.1013 48.0994C29.5224 51.8696 28.7093 55.9163 28.7093 60.0037C28.7093 64.0912 29.5224 68.1378 31.1013 71.9081C32.6802 75.6782 34.9934 79.0967 37.9061 81.9643C40.8189 84.832 44.273 87.0915 48.0673 88.6114C51.8617 90.1314 55.9205 90.8813 60.0075 90.8175C68.0966 90.6913 75.8116 87.3894 81.4873 81.6244C87.1631 75.8594 90.3443 68.0938 90.3443 60.0037C90.3443 51.9137 87.1631 44.1481 81.4873 38.3831C75.8116 32.6182 68.0966 29.3162 60.0075 29.19ZM60.0075 39.9975C62.6343 39.9975 65.2353 40.5149 67.6621 41.5201C70.0889 42.5253 72.294 43.9987 74.1514 45.8561C76.0088 47.7135 77.4822 49.9186 78.4874 52.3454C79.4926 54.7722 80.01 57.3732 80.01 60C80.01 62.6268 79.4926 65.2278 78.4874 67.6546C77.4822 70.0814 76.0088 72.2865 74.1514 74.1439C72.294 76.0013 70.0889 77.4747 67.6621 78.4799C65.2353 79.4851 62.6343 80.0025 60.0075 80.0025C54.7025 80.0025 49.6148 77.8951 45.8636 74.1439C42.1124 70.3927 40.005 65.305 40.005 60C40.005 54.695 42.1124 49.6073 45.8636 45.8561C49.6148 42.1049 54.7025 39.9975 60.0075 39.9975Z" fill="white"/>
</svg>
