<svg width="103" height="118" viewBox="0 0 103 118" fill="none" xmlns="http://www.w3.org/2000/svg">
<path d="M58.8572 0H73.4243C74.4837 5.27312 77.3971 11.9254 82.5104 18.526C87.5132 24.9939 94.1494 29.5 103 29.5V44.25C90.1029 44.25 80.4136 38.2467 73.5714 30.7611V81.125C73.5714 88.4182 71.414 95.5476 67.3719 101.612C63.3299 107.676 57.5847 112.402 50.863 115.193C44.1413 117.984 36.7449 118.714 29.6092 117.291C22.4735 115.869 15.9189 112.357 10.7743 107.2C5.62973 102.042 2.12623 95.472 0.706844 88.3189C-0.712541 81.1659 0.0159387 73.7516 2.80016 67.0135C5.58439 60.2755 10.2993 54.5164 16.3487 50.4646C22.3981 46.4127 29.5102 44.25 36.7857 44.25V59C32.4204 59 28.1531 60.2976 24.5235 62.7287C20.8939 65.1599 18.0649 68.6153 16.3944 72.6581C14.7239 76.7009 14.2868 81.1495 15.1384 85.4414C15.99 89.7332 18.0921 93.6755 21.1789 96.7697C24.2656 99.864 28.1984 101.971 32.4798 102.825C36.7612 103.679 41.1991 103.24 45.2321 101.566C49.2651 99.8912 52.7122 97.0554 55.1374 93.417C57.5627 89.7785 58.8572 85.5009 58.8572 81.125V0Z" fill="white"/>
</svg>
