<svg width="103" height="107" viewBox="0 0 103 107" fill="none" xmlns="http://www.w3.org/2000/svg">
<path d="M87.9522 15.5554C83.2096 10.6033 77.561 6.67745 71.3358 4.0068C65.1106 1.33614 58.4335 -0.0258192 51.694 0.000370654C23.4543 0.000370654 0.439729 23.7944 0.413862 53.0053C0.413862 62.3611 2.78064 71.4627 7.24906 79.5212L0 107L27.1856 99.6304C34.7029 103.872 43.1306 106.091 51.694 106.084H51.7199C79.966 106.084 102.974 82.2898 103 53.0521C103.006 46.0842 101.679 39.1839 99.0949 32.7486C96.5112 26.3132 92.7286 20.4701 87.9522 15.5554ZM51.694 97.1092C44.0581 97.103 36.5636 94.9783 29.9921 90.9567L28.4401 89.9938L12.3124 94.3674L16.6192 78.0967L15.6104 76.4182C11.3412 69.3985 9.08329 61.2712 9.0985 52.9786C9.0985 28.7298 28.2202 8.94822 51.7199 8.94822C57.3182 8.93783 62.8633 10.0735 68.0352 12.2899C73.2072 14.5062 77.9038 17.7594 81.8542 21.8617C85.8176 25.9488 88.9597 30.8065 91.0995 36.1551C93.2392 41.5036 94.3344 47.2372 94.3218 53.0254C94.2959 77.3611 75.1742 97.1092 51.694 97.1092ZM75.0707 64.1132C73.7968 63.4512 67.5048 60.2479 66.3214 59.7931C65.1445 59.3584 64.2845 59.131 63.4438 60.4552C62.5837 61.7726 60.1264 64.7753 59.3892 65.638C58.652 66.5274 57.889 66.6277 56.6086 65.9723C55.3347 65.3036 51.2025 63.9126 46.3138 59.3852C42.4985 55.8742 39.9442 51.5274 39.1811 50.2099C38.4439 48.8858 39.11 48.177 39.7502 47.5149C40.3128 46.9264 41.0241 45.9634 41.6643 45.201C42.311 44.4387 42.5244 43.8769 42.9447 42.9942C43.365 42.098 43.1645 41.3357 42.8477 40.6736C42.5243 40.0115 39.97 33.4779 38.8901 30.843C37.8555 28.2416 36.8014 28.6027 36.0125 28.5693C35.2753 28.5225 34.4152 28.5225 33.5552 28.5225C32.9058 28.5396 32.2668 28.6951 31.6781 28.9793C31.0895 29.2635 30.564 29.6703 30.1343 30.1743C28.9574 31.4984 25.6659 34.7017 25.6659 41.2354C25.6659 47.769 30.2572 54.0486 30.9039 54.938C31.5376 55.8274 39.9183 69.1957 52.7804 74.9469C55.8197 76.3179 58.2123 77.127 60.0812 77.7423C63.1528 78.7588 65.927 78.605 68.1385 78.2773C70.5959 77.8894 75.7109 75.0673 76.7908 71.971C77.8514 68.868 77.8514 66.2198 77.528 65.6647C77.2112 65.103 76.3511 64.7753 75.0707 64.1132Z" fill="white"/>
</svg>
